<mxfile host="Electron" agent="Mozilla/5.0 (Windows NT 10.0; Win64; x64) AppleWebKit/537.36 (KHTML, like Gecko) draw.io/26.0.4 Chrome/128.0.6613.186 Electron/32.2.5 Safari/537.36" version="26.0.4">
  <diagram name="Страница — 1" id="B6BZZk6Ft8y3gED_Lutp">
    <mxGraphModel dx="1075" dy="598" grid="1" gridSize="10" guides="1" tooltips="1" connect="1" arrows="1" fold="1" page="1" pageScale="1" pageWidth="827" pageHeight="1169" math="0" shadow="0">
      <root>
        <mxCell id="0" />
        <mxCell id="1" parent="0" />
        <mxCell id="aj21QM4YFqXwKg9EeIsF-3" style="edgeStyle=orthogonalEdgeStyle;rounded=0;orthogonalLoop=1;jettySize=auto;html=1;" parent="1" source="aj21QM4YFqXwKg9EeIsF-1" target="aj21QM4YFqXwKg9EeIsF-2" edge="1">
          <mxGeometry relative="1" as="geometry" />
        </mxCell>
        <mxCell id="aj21QM4YFqXwKg9EeIsF-1" value="Начало" style="ellipse;whiteSpace=wrap;html=1;" parent="1" vertex="1">
          <mxGeometry x="120" y="10" width="70" height="40" as="geometry" />
        </mxCell>
        <mxCell id="aj21QM4YFqXwKg9EeIsF-13" style="edgeStyle=orthogonalEdgeStyle;rounded=0;orthogonalLoop=1;jettySize=auto;html=1;entryX=0.5;entryY=0;entryDx=0;entryDy=0;" parent="1" source="aj21QM4YFqXwKg9EeIsF-2" target="aj21QM4YFqXwKg9EeIsF-12" edge="1">
          <mxGeometry relative="1" as="geometry" />
        </mxCell>
        <mxCell id="aj21QM4YFqXwKg9EeIsF-2" value="int main()" style="shape=process;whiteSpace=wrap;html=1;backgroundOutline=1;" parent="1" vertex="1">
          <mxGeometry x="115" y="100" width="80" height="20" as="geometry" />
        </mxCell>
        <mxCell id="aj21QM4YFqXwKg9EeIsF-4" value="&lt;div&gt;#include &amp;lt;iostream&amp;gt;&lt;/div&gt;&lt;div&gt;#include &amp;lt;clocale&amp;gt;&lt;/div&gt;&lt;div&gt;#include &amp;lt;ctime&amp;gt;&lt;/div&gt;&lt;div&gt;using namespace std;&lt;/div&gt;" style="text;html=1;align=center;verticalAlign=middle;whiteSpace=wrap;rounded=0;" parent="1" vertex="1">
          <mxGeometry x="220" y="35" width="130" height="70" as="geometry" />
        </mxCell>
        <mxCell id="aj21QM4YFqXwKg9EeIsF-5" value="" style="endArrow=none;dashed=1;html=1;rounded=0;entryX=0;entryY=0.5;entryDx=0;entryDy=0;" parent="1" target="aj21QM4YFqXwKg9EeIsF-4" edge="1">
          <mxGeometry width="50" height="50" relative="1" as="geometry">
            <mxPoint x="160" y="70" as="sourcePoint" />
            <mxPoint x="310" y="160" as="targetPoint" />
          </mxGeometry>
        </mxCell>
        <mxCell id="aj21QM4YFqXwKg9EeIsF-7" value="" style="endArrow=none;html=1;rounded=0;entryX=0;entryY=0;entryDx=0;entryDy=0;exitX=0;exitY=1;exitDx=0;exitDy=0;" parent="1" source="aj21QM4YFqXwKg9EeIsF-4" target="aj21QM4YFqXwKg9EeIsF-4" edge="1">
          <mxGeometry width="50" height="50" relative="1" as="geometry">
            <mxPoint x="260" y="210" as="sourcePoint" />
            <mxPoint x="310" y="160" as="targetPoint" />
          </mxGeometry>
        </mxCell>
        <mxCell id="aj21QM4YFqXwKg9EeIsF-8" value="" style="endArrow=none;html=1;rounded=0;exitX=0;exitY=0;exitDx=0;exitDy=0;entryX=1;entryY=0;entryDx=0;entryDy=0;" parent="1" source="aj21QM4YFqXwKg9EeIsF-4" target="aj21QM4YFqXwKg9EeIsF-4" edge="1">
          <mxGeometry width="50" height="50" relative="1" as="geometry">
            <mxPoint x="260" y="210" as="sourcePoint" />
            <mxPoint x="310" y="160" as="targetPoint" />
          </mxGeometry>
        </mxCell>
        <mxCell id="aj21QM4YFqXwKg9EeIsF-9" value="" style="endArrow=none;html=1;rounded=0;exitX=0;exitY=1;exitDx=0;exitDy=0;entryX=1;entryY=1;entryDx=0;entryDy=0;" parent="1" source="aj21QM4YFqXwKg9EeIsF-4" target="aj21QM4YFqXwKg9EeIsF-4" edge="1">
          <mxGeometry width="50" height="50" relative="1" as="geometry">
            <mxPoint x="260" y="210" as="sourcePoint" />
            <mxPoint x="310" y="160" as="targetPoint" />
          </mxGeometry>
        </mxCell>
        <mxCell id="VqYttmcOmST4QJVRA_Sv-2" style="edgeStyle=orthogonalEdgeStyle;rounded=0;orthogonalLoop=1;jettySize=auto;html=1;entryX=0.5;entryY=0;entryDx=0;entryDy=0;" edge="1" parent="1" source="aj21QM4YFqXwKg9EeIsF-10" target="VqYttmcOmST4QJVRA_Sv-1">
          <mxGeometry relative="1" as="geometry" />
        </mxCell>
        <mxCell id="aj21QM4YFqXwKg9EeIsF-10" value="const int n = 7, m = 9;" style="rounded=0;whiteSpace=wrap;html=1;" parent="1" vertex="1">
          <mxGeometry x="95" y="220" width="120" height="20" as="geometry" />
        </mxCell>
        <mxCell id="aj21QM4YFqXwKg9EeIsF-15" style="edgeStyle=orthogonalEdgeStyle;rounded=0;orthogonalLoop=1;jettySize=auto;html=1;" parent="1" source="aj21QM4YFqXwKg9EeIsF-11" target="aj21QM4YFqXwKg9EeIsF-10" edge="1">
          <mxGeometry relative="1" as="geometry" />
        </mxCell>
        <mxCell id="aj21QM4YFqXwKg9EeIsF-11" value="srand(time(0));" style="rounded=0;whiteSpace=wrap;html=1;" parent="1" vertex="1">
          <mxGeometry x="110" y="180" width="90" height="20" as="geometry" />
        </mxCell>
        <mxCell id="aj21QM4YFqXwKg9EeIsF-14" style="edgeStyle=orthogonalEdgeStyle;rounded=0;orthogonalLoop=1;jettySize=auto;html=1;" parent="1" source="aj21QM4YFqXwKg9EeIsF-12" target="aj21QM4YFqXwKg9EeIsF-11" edge="1">
          <mxGeometry relative="1" as="geometry" />
        </mxCell>
        <mxCell id="aj21QM4YFqXwKg9EeIsF-12" value="setlocale(0, &quot;&quot;);" style="rounded=0;whiteSpace=wrap;html=1;" parent="1" vertex="1">
          <mxGeometry x="110" y="140" width="90" height="20" as="geometry" />
        </mxCell>
        <mxCell id="aj21QM4YFqXwKg9EeIsF-22" value="{" style="text;html=1;align=center;verticalAlign=middle;whiteSpace=wrap;rounded=0;" parent="1" vertex="1">
          <mxGeometry x="130" y="120" width="25" height="20" as="geometry" />
        </mxCell>
        <mxCell id="aj21QM4YFqXwKg9EeIsF-26" style="edgeStyle=orthogonalEdgeStyle;rounded=0;orthogonalLoop=1;jettySize=auto;html=1;entryX=0.5;entryY=0;entryDx=0;entryDy=0;" parent="1" source="aj21QM4YFqXwKg9EeIsF-23" target="aj21QM4YFqXwKg9EeIsF-25" edge="1">
          <mxGeometry relative="1" as="geometry" />
        </mxCell>
        <mxCell id="VqYttmcOmST4QJVRA_Sv-9" style="edgeStyle=orthogonalEdgeStyle;rounded=0;orthogonalLoop=1;jettySize=auto;html=1;entryX=0;entryY=0.5;entryDx=0;entryDy=0;" edge="1" parent="1" source="aj21QM4YFqXwKg9EeIsF-23" target="VqYttmcOmST4QJVRA_Sv-3">
          <mxGeometry relative="1" as="geometry">
            <mxPoint x="50" y="300" as="targetPoint" />
            <Array as="points">
              <mxPoint x="250" y="350" />
              <mxPoint x="250" y="430" />
              <mxPoint x="50" y="430" />
              <mxPoint x="50" y="310" />
            </Array>
          </mxGeometry>
        </mxCell>
        <mxCell id="aj21QM4YFqXwKg9EeIsF-23" value="for (int j = 0; j &amp;lt; m; j++)" style="shape=hexagon;perimeter=hexagonPerimeter2;whiteSpace=wrap;html=1;fixedSize=1;" parent="1" vertex="1">
          <mxGeometry x="80" y="340" width="150" height="20" as="geometry" />
        </mxCell>
        <mxCell id="aj21QM4YFqXwKg9EeIsF-27" style="edgeStyle=orthogonalEdgeStyle;rounded=0;orthogonalLoop=1;jettySize=auto;html=1;entryX=0;entryY=0.5;entryDx=0;entryDy=0;" parent="1" source="aj21QM4YFqXwKg9EeIsF-25" target="aj21QM4YFqXwKg9EeIsF-23" edge="1">
          <mxGeometry relative="1" as="geometry">
            <mxPoint x="40" y="340" as="targetPoint" />
            <Array as="points">
              <mxPoint x="155" y="420" />
              <mxPoint x="60" y="420" />
              <mxPoint x="60" y="350" />
            </Array>
          </mxGeometry>
        </mxCell>
        <mxCell id="aj21QM4YFqXwKg9EeIsF-25" value="mas[i][j] = rand() % 100 - 50;" style="rounded=0;whiteSpace=wrap;html=1;" parent="1" vertex="1">
          <mxGeometry x="76" y="380" width="160" height="20" as="geometry" />
        </mxCell>
        <mxCell id="aj21QM4YFqXwKg9EeIsF-28" value="1" style="text;html=1;align=center;verticalAlign=middle;whiteSpace=wrap;rounded=0;" parent="1" vertex="1">
          <mxGeometry x="130" y="360" width="27.5" height="20" as="geometry" />
        </mxCell>
        <mxCell id="aj21QM4YFqXwKg9EeIsF-29" value="0" style="text;html=1;align=center;verticalAlign=middle;whiteSpace=wrap;rounded=0;" parent="1" vertex="1">
          <mxGeometry x="225" y="330" width="20" height="20" as="geometry" />
        </mxCell>
        <mxCell id="aj21QM4YFqXwKg9EeIsF-30" value="{" style="text;html=1;align=center;verticalAlign=middle;whiteSpace=wrap;rounded=0;" parent="1" vertex="1">
          <mxGeometry x="120" y="360" width="25" height="20" as="geometry" />
        </mxCell>
        <mxCell id="aj21QM4YFqXwKg9EeIsF-31" value="}" style="text;html=1;align=center;verticalAlign=middle;whiteSpace=wrap;rounded=0;" parent="1" vertex="1">
          <mxGeometry x="157.5" y="400" width="12.5" height="20" as="geometry" />
        </mxCell>
        <mxCell id="VqYttmcOmST4QJVRA_Sv-100" style="edgeStyle=orthogonalEdgeStyle;rounded=0;orthogonalLoop=1;jettySize=auto;html=1;entryX=0.5;entryY=0;entryDx=0;entryDy=0;" edge="1" parent="1" source="aj21QM4YFqXwKg9EeIsF-33" target="VqYttmcOmST4QJVRA_Sv-18">
          <mxGeometry relative="1" as="geometry" />
        </mxCell>
        <mxCell id="aj21QM4YFqXwKg9EeIsF-33" value="cout &amp;lt;&amp;lt; &quot;Вывод матрицы:&quot; &amp;lt;&amp;lt; endl;" style="shape=parallelogram;perimeter=parallelogramPerimeter;whiteSpace=wrap;html=1;fixedSize=1;" parent="1" vertex="1">
          <mxGeometry x="271" y="336" width="230" height="20" as="geometry" />
        </mxCell>
        <mxCell id="VqYttmcOmST4QJVRA_Sv-4" style="edgeStyle=orthogonalEdgeStyle;rounded=0;orthogonalLoop=1;jettySize=auto;html=1;entryX=0.5;entryY=0;entryDx=0;entryDy=0;" edge="1" parent="1" source="VqYttmcOmST4QJVRA_Sv-1" target="VqYttmcOmST4QJVRA_Sv-3">
          <mxGeometry relative="1" as="geometry" />
        </mxCell>
        <mxCell id="VqYttmcOmST4QJVRA_Sv-1" value="int mas[n][m];" style="rounded=0;whiteSpace=wrap;html=1;" vertex="1" parent="1">
          <mxGeometry x="115" y="260" width="80" height="20" as="geometry" />
        </mxCell>
        <mxCell id="VqYttmcOmST4QJVRA_Sv-5" style="edgeStyle=orthogonalEdgeStyle;rounded=0;orthogonalLoop=1;jettySize=auto;html=1;entryX=0.5;entryY=0;entryDx=0;entryDy=0;" edge="1" parent="1" source="VqYttmcOmST4QJVRA_Sv-3" target="aj21QM4YFqXwKg9EeIsF-23">
          <mxGeometry relative="1" as="geometry" />
        </mxCell>
        <mxCell id="VqYttmcOmST4QJVRA_Sv-101" style="edgeStyle=orthogonalEdgeStyle;rounded=0;orthogonalLoop=1;jettySize=auto;html=1;" edge="1" parent="1" source="VqYttmcOmST4QJVRA_Sv-3" target="aj21QM4YFqXwKg9EeIsF-33">
          <mxGeometry relative="1" as="geometry" />
        </mxCell>
        <mxCell id="VqYttmcOmST4QJVRA_Sv-3" value="for (int i = 0; i &amp;lt; n; i++)" style="shape=hexagon;perimeter=hexagonPerimeter2;whiteSpace=wrap;html=1;fixedSize=1;" vertex="1" parent="1">
          <mxGeometry x="85" y="300" width="140" height="20" as="geometry" />
        </mxCell>
        <mxCell id="VqYttmcOmST4QJVRA_Sv-6" value="{" style="text;html=1;align=center;verticalAlign=middle;whiteSpace=wrap;rounded=0;" vertex="1" parent="1">
          <mxGeometry x="120" y="320" width="20" height="20" as="geometry" />
        </mxCell>
        <mxCell id="VqYttmcOmST4QJVRA_Sv-7" value="1" style="text;html=1;align=center;verticalAlign=middle;whiteSpace=wrap;rounded=0;" vertex="1" parent="1">
          <mxGeometry x="130" y="320" width="25" height="20" as="geometry" />
        </mxCell>
        <mxCell id="VqYttmcOmST4QJVRA_Sv-8" value="0" style="text;html=1;align=center;verticalAlign=middle;whiteSpace=wrap;rounded=0;" vertex="1" parent="1">
          <mxGeometry x="225" y="290" width="20" height="20" as="geometry" />
        </mxCell>
        <mxCell id="VqYttmcOmST4QJVRA_Sv-10" value="}" style="text;html=1;align=center;verticalAlign=middle;whiteSpace=wrap;rounded=0;" vertex="1" parent="1">
          <mxGeometry x="250" y="410" width="12.5" height="20" as="geometry" />
        </mxCell>
        <mxCell id="VqYttmcOmST4QJVRA_Sv-25" style="edgeStyle=orthogonalEdgeStyle;rounded=0;orthogonalLoop=1;jettySize=auto;html=1;entryX=0.5;entryY=0;entryDx=0;entryDy=0;" edge="1" parent="1" source="VqYttmcOmST4QJVRA_Sv-13" target="VqYttmcOmST4QJVRA_Sv-24">
          <mxGeometry relative="1" as="geometry" />
        </mxCell>
        <mxCell id="VqYttmcOmST4QJVRA_Sv-30" style="edgeStyle=orthogonalEdgeStyle;rounded=0;orthogonalLoop=1;jettySize=auto;html=1;entryX=0.5;entryY=0;entryDx=0;entryDy=0;" edge="1" parent="1" source="VqYttmcOmST4QJVRA_Sv-13" target="VqYttmcOmST4QJVRA_Sv-29">
          <mxGeometry relative="1" as="geometry">
            <Array as="points">
              <mxPoint x="485" y="430" />
            </Array>
          </mxGeometry>
        </mxCell>
        <mxCell id="VqYttmcOmST4QJVRA_Sv-13" value="for (int j = 0; j &amp;lt; m; j++)" style="shape=hexagon;perimeter=hexagonPerimeter2;whiteSpace=wrap;html=1;fixedSize=1;" vertex="1" parent="1">
          <mxGeometry x="311" y="420" width="150" height="20" as="geometry" />
        </mxCell>
        <mxCell id="VqYttmcOmST4QJVRA_Sv-14" value="1" style="text;html=1;align=center;verticalAlign=middle;whiteSpace=wrap;rounded=0;" vertex="1" parent="1">
          <mxGeometry x="361" y="440" width="19" height="20" as="geometry" />
        </mxCell>
        <mxCell id="VqYttmcOmST4QJVRA_Sv-15" value="0" style="text;html=1;align=center;verticalAlign=middle;whiteSpace=wrap;rounded=0;" vertex="1" parent="1">
          <mxGeometry x="456" y="410" width="20" height="20" as="geometry" />
        </mxCell>
        <mxCell id="VqYttmcOmST4QJVRA_Sv-16" value="{" style="text;html=1;align=center;verticalAlign=middle;whiteSpace=wrap;rounded=0;" vertex="1" parent="1">
          <mxGeometry x="348.5" y="440" width="11.5" height="20" as="geometry" />
        </mxCell>
        <mxCell id="VqYttmcOmST4QJVRA_Sv-17" style="edgeStyle=orthogonalEdgeStyle;rounded=0;orthogonalLoop=1;jettySize=auto;html=1;entryX=0.5;entryY=0;entryDx=0;entryDy=0;" edge="1" source="VqYttmcOmST4QJVRA_Sv-18" target="VqYttmcOmST4QJVRA_Sv-13" parent="1">
          <mxGeometry relative="1" as="geometry" />
        </mxCell>
        <mxCell id="VqYttmcOmST4QJVRA_Sv-70" style="edgeStyle=orthogonalEdgeStyle;rounded=0;orthogonalLoop=1;jettySize=auto;html=1;entryX=0.5;entryY=0;entryDx=0;entryDy=0;" edge="1" parent="1" source="VqYttmcOmST4QJVRA_Sv-18" target="VqYttmcOmST4QJVRA_Sv-34">
          <mxGeometry relative="1" as="geometry">
            <Array as="points">
              <mxPoint x="550" y="390" />
              <mxPoint x="550" y="540" />
              <mxPoint x="187" y="540" />
            </Array>
          </mxGeometry>
        </mxCell>
        <mxCell id="VqYttmcOmST4QJVRA_Sv-18" value="for (int i = 0; i &amp;lt; n; i++)" style="shape=hexagon;perimeter=hexagonPerimeter2;whiteSpace=wrap;html=1;fixedSize=1;" vertex="1" parent="1">
          <mxGeometry x="316" y="380" width="140" height="20" as="geometry" />
        </mxCell>
        <mxCell id="VqYttmcOmST4QJVRA_Sv-19" value="{" style="text;html=1;align=center;verticalAlign=middle;whiteSpace=wrap;rounded=0;" vertex="1" parent="1">
          <mxGeometry x="351" y="400" width="20" height="20" as="geometry" />
        </mxCell>
        <mxCell id="VqYttmcOmST4QJVRA_Sv-20" value="1" style="text;html=1;align=center;verticalAlign=middle;whiteSpace=wrap;rounded=0;" vertex="1" parent="1">
          <mxGeometry x="361" y="400" width="25" height="20" as="geometry" />
        </mxCell>
        <mxCell id="VqYttmcOmST4QJVRA_Sv-21" value="0" style="text;html=1;align=center;verticalAlign=middle;whiteSpace=wrap;rounded=0;" vertex="1" parent="1">
          <mxGeometry x="456" y="370" width="20" height="20" as="geometry" />
        </mxCell>
        <mxCell id="VqYttmcOmST4QJVRA_Sv-26" style="edgeStyle=orthogonalEdgeStyle;rounded=0;orthogonalLoop=1;jettySize=auto;html=1;entryX=0;entryY=0.5;entryDx=0;entryDy=0;" edge="1" parent="1" source="VqYttmcOmST4QJVRA_Sv-24" target="VqYttmcOmST4QJVRA_Sv-13">
          <mxGeometry relative="1" as="geometry">
            <mxPoint x="280" y="430" as="targetPoint" />
            <Array as="points">
              <mxPoint x="386" y="500" />
              <mxPoint x="290" y="500" />
              <mxPoint x="290" y="430" />
            </Array>
          </mxGeometry>
        </mxCell>
        <mxCell id="VqYttmcOmST4QJVRA_Sv-24" value="cout &amp;lt;&amp;lt; mas[i][j] &amp;lt;&amp;lt; &#39; &#39;;" style="shape=parallelogram;perimeter=parallelogramPerimeter;whiteSpace=wrap;html=1;fixedSize=1;" vertex="1" parent="1">
          <mxGeometry x="306" y="465" width="160" height="20" as="geometry" />
        </mxCell>
        <mxCell id="VqYttmcOmST4QJVRA_Sv-27" value="}" style="text;html=1;align=center;verticalAlign=middle;whiteSpace=wrap;rounded=0;" vertex="1" parent="1">
          <mxGeometry x="386" y="485" width="12.5" height="20" as="geometry" />
        </mxCell>
        <mxCell id="VqYttmcOmST4QJVRA_Sv-31" style="edgeStyle=orthogonalEdgeStyle;rounded=0;orthogonalLoop=1;jettySize=auto;html=1;entryX=0;entryY=0.5;entryDx=0;entryDy=0;" edge="1" parent="1" source="VqYttmcOmST4QJVRA_Sv-29" target="VqYttmcOmST4QJVRA_Sv-18">
          <mxGeometry relative="1" as="geometry">
            <mxPoint x="270" y="410" as="targetPoint" />
            <Array as="points">
              <mxPoint x="485" y="530" />
              <mxPoint x="280" y="530" />
              <mxPoint x="280" y="390" />
            </Array>
          </mxGeometry>
        </mxCell>
        <mxCell id="VqYttmcOmST4QJVRA_Sv-29" value="cout &lt;&lt; endl;" style="shape=parallelogram;perimeter=parallelogramPerimeter;whiteSpace=wrap;html=1;fixedSize=1;" vertex="1" parent="1">
          <mxGeometry x="430" y="490" width="110" height="20" as="geometry" />
        </mxCell>
        <mxCell id="VqYttmcOmST4QJVRA_Sv-32" value="}" style="text;html=1;align=center;verticalAlign=middle;whiteSpace=wrap;rounded=0;" vertex="1" parent="1">
          <mxGeometry x="487.5" y="510" width="12.5" height="20" as="geometry" />
        </mxCell>
        <mxCell id="VqYttmcOmST4QJVRA_Sv-37" style="edgeStyle=orthogonalEdgeStyle;rounded=0;orthogonalLoop=1;jettySize=auto;html=1;" edge="1" parent="1" source="VqYttmcOmST4QJVRA_Sv-34" target="VqYttmcOmST4QJVRA_Sv-35">
          <mxGeometry relative="1" as="geometry" />
        </mxCell>
        <mxCell id="VqYttmcOmST4QJVRA_Sv-34" value="cout &lt;&lt; endl;" style="shape=parallelogram;perimeter=parallelogramPerimeter;whiteSpace=wrap;html=1;fixedSize=1;" vertex="1" parent="1">
          <mxGeometry x="132.24" y="560" width="110" height="20" as="geometry" />
        </mxCell>
        <mxCell id="VqYttmcOmST4QJVRA_Sv-43" style="edgeStyle=orthogonalEdgeStyle;rounded=0;orthogonalLoop=1;jettySize=auto;html=1;" edge="1" parent="1" source="VqYttmcOmST4QJVRA_Sv-35" target="VqYttmcOmST4QJVRA_Sv-41">
          <mxGeometry relative="1" as="geometry" />
        </mxCell>
        <mxCell id="VqYttmcOmST4QJVRA_Sv-35" value="int max = -1000;" style="rounded=0;whiteSpace=wrap;html=1;" vertex="1" parent="1">
          <mxGeometry x="137.24" y="600" width="100" height="20" as="geometry" />
        </mxCell>
        <mxCell id="VqYttmcOmST4QJVRA_Sv-47" style="edgeStyle=orthogonalEdgeStyle;rounded=0;orthogonalLoop=1;jettySize=auto;html=1;entryX=0.5;entryY=0;entryDx=0;entryDy=0;" edge="1" parent="1" source="VqYttmcOmST4QJVRA_Sv-38" target="VqYttmcOmST4QJVRA_Sv-42">
          <mxGeometry relative="1" as="geometry" />
        </mxCell>
        <mxCell id="VqYttmcOmST4QJVRA_Sv-49" style="edgeStyle=orthogonalEdgeStyle;rounded=0;orthogonalLoop=1;jettySize=auto;html=1;entryX=0;entryY=0.5;entryDx=0;entryDy=0;" edge="1" parent="1" source="VqYttmcOmST4QJVRA_Sv-38" target="VqYttmcOmST4QJVRA_Sv-39">
          <mxGeometry relative="1" as="geometry">
            <mxPoint x="32.24000000000001" y="820" as="targetPoint" />
            <Array as="points">
              <mxPoint x="302.24" y="770" />
              <mxPoint x="302.24" y="850" />
              <mxPoint x="62.24000000000001" y="850" />
              <mxPoint x="62.24000000000001" y="730" />
            </Array>
          </mxGeometry>
        </mxCell>
        <mxCell id="VqYttmcOmST4QJVRA_Sv-38" value="for (int k = j + 1; k &amp;lt; m; k++)" style="shape=hexagon;perimeter=hexagonPerimeter2;whiteSpace=wrap;html=1;fixedSize=1;" vertex="1" parent="1">
          <mxGeometry x="102.24000000000001" y="760" width="170" height="20" as="geometry" />
        </mxCell>
        <mxCell id="VqYttmcOmST4QJVRA_Sv-46" style="edgeStyle=orthogonalEdgeStyle;rounded=0;orthogonalLoop=1;jettySize=auto;html=1;entryX=0.5;entryY=0;entryDx=0;entryDy=0;" edge="1" parent="1" source="VqYttmcOmST4QJVRA_Sv-39" target="VqYttmcOmST4QJVRA_Sv-38">
          <mxGeometry relative="1" as="geometry" />
        </mxCell>
        <mxCell id="VqYttmcOmST4QJVRA_Sv-50" style="edgeStyle=orthogonalEdgeStyle;rounded=0;orthogonalLoop=1;jettySize=auto;html=1;entryX=0;entryY=0.5;entryDx=0;entryDy=0;" edge="1" parent="1" source="VqYttmcOmST4QJVRA_Sv-39" target="VqYttmcOmST4QJVRA_Sv-40">
          <mxGeometry relative="1" as="geometry">
            <mxPoint x="42.24000000000001" y="810" as="targetPoint" />
            <Array as="points">
              <mxPoint x="322.24" y="730" />
              <mxPoint x="322.24" y="860" />
              <mxPoint x="52.24000000000001" y="860" />
              <mxPoint x="52.24000000000001" y="690" />
            </Array>
          </mxGeometry>
        </mxCell>
        <mxCell id="VqYttmcOmST4QJVRA_Sv-39" value="for (int j = 0; j &amp;lt; m; j++)" style="shape=hexagon;perimeter=hexagonPerimeter2;whiteSpace=wrap;html=1;fixedSize=1;" vertex="1" parent="1">
          <mxGeometry x="112.24000000000001" y="720" width="150" height="20" as="geometry" />
        </mxCell>
        <mxCell id="VqYttmcOmST4QJVRA_Sv-45" style="edgeStyle=orthogonalEdgeStyle;rounded=0;orthogonalLoop=1;jettySize=auto;html=1;entryX=0.5;entryY=0;entryDx=0;entryDy=0;" edge="1" parent="1" source="VqYttmcOmST4QJVRA_Sv-40" target="VqYttmcOmST4QJVRA_Sv-39">
          <mxGeometry relative="1" as="geometry" />
        </mxCell>
        <mxCell id="VqYttmcOmST4QJVRA_Sv-68" style="edgeStyle=orthogonalEdgeStyle;rounded=0;orthogonalLoop=1;jettySize=auto;html=1;entryX=0;entryY=0.5;entryDx=0;entryDy=0;" edge="1" parent="1" source="VqYttmcOmST4QJVRA_Sv-40" target="VqYttmcOmST4QJVRA_Sv-41">
          <mxGeometry relative="1" as="geometry">
            <mxPoint x="12.240000000000009" y="740" as="targetPoint" />
            <Array as="points">
              <mxPoint x="342.24" y="690" />
              <mxPoint x="342.24" y="870" />
              <mxPoint x="42.24000000000001" y="870" />
              <mxPoint x="42.24000000000001" y="650" />
            </Array>
          </mxGeometry>
        </mxCell>
        <mxCell id="VqYttmcOmST4QJVRA_Sv-40" value="for (int l = i; l &amp;lt; n; l++)" style="shape=hexagon;perimeter=hexagonPerimeter2;whiteSpace=wrap;html=1;fixedSize=1;" vertex="1" parent="1">
          <mxGeometry x="117.24000000000001" y="680" width="140" height="20" as="geometry" />
        </mxCell>
        <mxCell id="VqYttmcOmST4QJVRA_Sv-44" style="edgeStyle=orthogonalEdgeStyle;rounded=0;orthogonalLoop=1;jettySize=auto;html=1;entryX=0.5;entryY=0;entryDx=0;entryDy=0;" edge="1" parent="1" source="VqYttmcOmST4QJVRA_Sv-41" target="VqYttmcOmST4QJVRA_Sv-40">
          <mxGeometry relative="1" as="geometry" />
        </mxCell>
        <mxCell id="VqYttmcOmST4QJVRA_Sv-69" style="edgeStyle=orthogonalEdgeStyle;rounded=0;orthogonalLoop=1;jettySize=auto;html=1;entryX=0.5;entryY=0;entryDx=0;entryDy=0;" edge="1" parent="1" source="VqYttmcOmST4QJVRA_Sv-41" target="VqYttmcOmST4QJVRA_Sv-71">
          <mxGeometry relative="1" as="geometry">
            <mxPoint x="502.24" y="720" as="targetPoint" />
          </mxGeometry>
        </mxCell>
        <mxCell id="VqYttmcOmST4QJVRA_Sv-41" value="for (int i = 0; i &amp;lt; n; i++)" style="shape=hexagon;perimeter=hexagonPerimeter2;whiteSpace=wrap;html=1;fixedSize=1;" vertex="1" parent="1">
          <mxGeometry x="114.74000000000001" y="640" width="145" height="20" as="geometry" />
        </mxCell>
        <mxCell id="VqYttmcOmST4QJVRA_Sv-48" style="edgeStyle=orthogonalEdgeStyle;rounded=0;orthogonalLoop=1;jettySize=auto;html=1;entryX=0;entryY=0.5;entryDx=0;entryDy=0;" edge="1" parent="1" source="VqYttmcOmST4QJVRA_Sv-42" target="VqYttmcOmST4QJVRA_Sv-38">
          <mxGeometry relative="1" as="geometry">
            <mxPoint x="62.24000000000001" y="780" as="targetPoint" />
            <Array as="points">
              <mxPoint x="187.24" y="840" />
              <mxPoint x="72.24000000000001" y="840" />
              <mxPoint x="72.24000000000001" y="770" />
            </Array>
          </mxGeometry>
        </mxCell>
        <mxCell id="VqYttmcOmST4QJVRA_Sv-42" value="max = maxim(max, mas[i][j], mas[l][k]);" style="rounded=0;whiteSpace=wrap;html=1;" vertex="1" parent="1">
          <mxGeometry x="77.24000000000001" y="800" width="220" height="20" as="geometry" />
        </mxCell>
        <mxCell id="VqYttmcOmST4QJVRA_Sv-52" value="1" style="text;html=1;align=center;verticalAlign=middle;whiteSpace=wrap;rounded=0;" vertex="1" parent="1">
          <mxGeometry x="163.24" y="660" width="19" height="20" as="geometry" />
        </mxCell>
        <mxCell id="VqYttmcOmST4QJVRA_Sv-53" value="{" style="text;html=1;align=center;verticalAlign=middle;whiteSpace=wrap;rounded=0;" vertex="1" parent="1">
          <mxGeometry x="150.74" y="660" width="11.5" height="20" as="geometry" />
        </mxCell>
        <mxCell id="VqYttmcOmST4QJVRA_Sv-54" value="1" style="text;html=1;align=center;verticalAlign=middle;whiteSpace=wrap;rounded=0;" vertex="1" parent="1">
          <mxGeometry x="163.24" y="700" width="19" height="20" as="geometry" />
        </mxCell>
        <mxCell id="VqYttmcOmST4QJVRA_Sv-55" value="{" style="text;html=1;align=center;verticalAlign=middle;whiteSpace=wrap;rounded=0;" vertex="1" parent="1">
          <mxGeometry x="150.74" y="700" width="11.5" height="20" as="geometry" />
        </mxCell>
        <mxCell id="VqYttmcOmST4QJVRA_Sv-56" value="1" style="text;html=1;align=center;verticalAlign=middle;whiteSpace=wrap;rounded=0;" vertex="1" parent="1">
          <mxGeometry x="163.24" y="740" width="19" height="20" as="geometry" />
        </mxCell>
        <mxCell id="VqYttmcOmST4QJVRA_Sv-57" value="{" style="text;html=1;align=center;verticalAlign=middle;whiteSpace=wrap;rounded=0;" vertex="1" parent="1">
          <mxGeometry x="150.74" y="740" width="11.5" height="20" as="geometry" />
        </mxCell>
        <mxCell id="VqYttmcOmST4QJVRA_Sv-58" value="1" style="text;html=1;align=center;verticalAlign=middle;whiteSpace=wrap;rounded=0;" vertex="1" parent="1">
          <mxGeometry x="163.24" y="780" width="19" height="20" as="geometry" />
        </mxCell>
        <mxCell id="VqYttmcOmST4QJVRA_Sv-59" value="{" style="text;html=1;align=center;verticalAlign=middle;whiteSpace=wrap;rounded=0;" vertex="1" parent="1">
          <mxGeometry x="150.74" y="780" width="11.5" height="20" as="geometry" />
        </mxCell>
        <mxCell id="VqYttmcOmST4QJVRA_Sv-60" value="}" style="text;html=1;align=center;verticalAlign=middle;whiteSpace=wrap;rounded=0;" vertex="1" parent="1">
          <mxGeometry x="192.24" y="820" width="12.5" height="20" as="geometry" />
        </mxCell>
        <mxCell id="VqYttmcOmST4QJVRA_Sv-61" value="}" style="text;html=1;align=center;verticalAlign=middle;whiteSpace=wrap;rounded=0;" vertex="1" parent="1">
          <mxGeometry x="302.24" y="830" width="12.5" height="20" as="geometry" />
        </mxCell>
        <mxCell id="VqYttmcOmST4QJVRA_Sv-62" value="}" style="text;html=1;align=center;verticalAlign=middle;whiteSpace=wrap;rounded=0;" vertex="1" parent="1">
          <mxGeometry x="322.24" y="840" width="12.5" height="20" as="geometry" />
        </mxCell>
        <mxCell id="VqYttmcOmST4QJVRA_Sv-63" value="}" style="text;html=1;align=center;verticalAlign=middle;whiteSpace=wrap;rounded=0;" vertex="1" parent="1">
          <mxGeometry x="342.24" y="850" width="12.5" height="20" as="geometry" />
        </mxCell>
        <mxCell id="VqYttmcOmST4QJVRA_Sv-64" value="0" style="text;html=1;align=center;verticalAlign=middle;whiteSpace=wrap;rounded=0;" vertex="1" parent="1">
          <mxGeometry x="259.74" y="625" width="20" height="20" as="geometry" />
        </mxCell>
        <mxCell id="VqYttmcOmST4QJVRA_Sv-65" value="0" style="text;html=1;align=center;verticalAlign=middle;whiteSpace=wrap;rounded=0;" vertex="1" parent="1">
          <mxGeometry x="257.24" y="670" width="20" height="20" as="geometry" />
        </mxCell>
        <mxCell id="VqYttmcOmST4QJVRA_Sv-66" value="0" style="text;html=1;align=center;verticalAlign=middle;whiteSpace=wrap;rounded=0;" vertex="1" parent="1">
          <mxGeometry x="272.24" y="750" width="20" height="20" as="geometry" />
        </mxCell>
        <mxCell id="VqYttmcOmST4QJVRA_Sv-67" value="0" style="text;html=1;align=center;verticalAlign=middle;whiteSpace=wrap;rounded=0;" vertex="1" parent="1">
          <mxGeometry x="262.24" y="710" width="20" height="20" as="geometry" />
        </mxCell>
        <mxCell id="VqYttmcOmST4QJVRA_Sv-76" style="edgeStyle=orthogonalEdgeStyle;rounded=0;orthogonalLoop=1;jettySize=auto;html=1;entryX=0.5;entryY=0;entryDx=0;entryDy=0;" edge="1" parent="1" source="VqYttmcOmST4QJVRA_Sv-71" target="VqYttmcOmST4QJVRA_Sv-72">
          <mxGeometry relative="1" as="geometry">
            <Array as="points">
              <mxPoint x="258.74" y="915" />
              <mxPoint x="258.74" y="955" />
            </Array>
          </mxGeometry>
        </mxCell>
        <mxCell id="VqYttmcOmST4QJVRA_Sv-77" style="edgeStyle=orthogonalEdgeStyle;rounded=0;orthogonalLoop=1;jettySize=auto;html=1;entryX=0.5;entryY=0;entryDx=0;entryDy=0;" edge="1" parent="1" source="VqYttmcOmST4QJVRA_Sv-71" target="VqYttmcOmST4QJVRA_Sv-74">
          <mxGeometry relative="1" as="geometry">
            <mxPoint x="498.74" y="965" as="targetPoint" />
            <Array as="points">
              <mxPoint x="499.74" y="915" />
            </Array>
          </mxGeometry>
        </mxCell>
        <mxCell id="VqYttmcOmST4QJVRA_Sv-71" value="if (max == -1000)" style="rhombus;whiteSpace=wrap;html=1;" vertex="1" parent="1">
          <mxGeometry x="278.74" y="900" width="170" height="30" as="geometry" />
        </mxCell>
        <mxCell id="VqYttmcOmST4QJVRA_Sv-81" style="edgeStyle=orthogonalEdgeStyle;rounded=0;orthogonalLoop=1;jettySize=auto;html=1;" edge="1" parent="1" source="VqYttmcOmST4QJVRA_Sv-72">
          <mxGeometry relative="1" as="geometry">
            <mxPoint x="361.24" y="1025" as="targetPoint" />
            <Array as="points">
              <mxPoint x="259.24" y="1025" />
              <mxPoint x="361.24" y="1025" />
            </Array>
          </mxGeometry>
        </mxCell>
        <mxCell id="VqYttmcOmST4QJVRA_Sv-72" value="cout &amp;lt;&amp;lt; &quot;Повторяющихся элементов в массиве нет&quot;;" style="shape=parallelogram;perimeter=parallelogramPerimeter;whiteSpace=wrap;html=1;fixedSize=1;" vertex="1" parent="1">
          <mxGeometry x="93.74000000000001" y="955" width="330" height="20" as="geometry" />
        </mxCell>
        <mxCell id="VqYttmcOmST4QJVRA_Sv-82" style="edgeStyle=orthogonalEdgeStyle;rounded=0;orthogonalLoop=1;jettySize=auto;html=1;" edge="1" parent="1" source="VqYttmcOmST4QJVRA_Sv-74">
          <mxGeometry relative="1" as="geometry">
            <mxPoint x="361.24" y="1025" as="targetPoint" />
            <Array as="points">
              <mxPoint x="499.24" y="1025" />
            </Array>
          </mxGeometry>
        </mxCell>
        <mxCell id="VqYttmcOmST4QJVRA_Sv-74" value="cout &amp;lt;&amp;lt; &quot;Максимальный из повторяющихся элементов массива = &quot; &amp;lt;&amp;lt; max;" style="shape=parallelogram;perimeter=parallelogramPerimeter;whiteSpace=wrap;html=1;fixedSize=1;" vertex="1" parent="1">
          <mxGeometry x="269.74" y="985" width="460" height="20" as="geometry" />
        </mxCell>
        <mxCell id="VqYttmcOmST4QJVRA_Sv-75" value="return 0;" style="ellipse;whiteSpace=wrap;html=1;" vertex="1" parent="1">
          <mxGeometry x="325.74" y="1055" width="70" height="40" as="geometry" />
        </mxCell>
        <mxCell id="VqYttmcOmST4QJVRA_Sv-78" value="0" style="text;html=1;align=center;verticalAlign=middle;whiteSpace=wrap;rounded=0;" vertex="1" parent="1">
          <mxGeometry x="452.24" y="890" width="20" height="20" as="geometry" />
        </mxCell>
        <mxCell id="VqYttmcOmST4QJVRA_Sv-79" value="1" style="text;html=1;align=center;verticalAlign=middle;whiteSpace=wrap;rounded=0;" vertex="1" parent="1">
          <mxGeometry x="269.74" y="890" width="19" height="20" as="geometry" />
        </mxCell>
        <mxCell id="VqYttmcOmST4QJVRA_Sv-83" value="" style="endArrow=classic;html=1;rounded=0;entryX=0.5;entryY=0;entryDx=0;entryDy=0;" edge="1" parent="1" target="VqYttmcOmST4QJVRA_Sv-75">
          <mxGeometry width="50" height="50" relative="1" as="geometry">
            <mxPoint x="361.24" y="1025" as="sourcePoint" />
            <mxPoint x="411.24" y="985" as="targetPoint" />
          </mxGeometry>
        </mxCell>
        <mxCell id="VqYttmcOmST4QJVRA_Sv-84" value="}" style="text;html=1;align=center;verticalAlign=middle;whiteSpace=wrap;rounded=0;" vertex="1" parent="1">
          <mxGeometry x="395.74" y="1065" width="12.5" height="20" as="geometry" />
        </mxCell>
        <mxCell id="VqYttmcOmST4QJVRA_Sv-91" style="edgeStyle=orthogonalEdgeStyle;rounded=0;orthogonalLoop=1;jettySize=auto;html=1;entryX=0.5;entryY=0;entryDx=0;entryDy=0;" edge="1" parent="1" source="VqYttmcOmST4QJVRA_Sv-85" target="VqYttmcOmST4QJVRA_Sv-87">
          <mxGeometry relative="1" as="geometry" />
        </mxCell>
        <mxCell id="VqYttmcOmST4QJVRA_Sv-85" value="int maxim(int max, int elem1, int elem2)" style="shape=process;whiteSpace=wrap;html=1;backgroundOutline=1;" vertex="1" parent="1">
          <mxGeometry x="402.25" y="35" width="300" height="20" as="geometry" />
        </mxCell>
        <mxCell id="VqYttmcOmST4QJVRA_Sv-93" style="edgeStyle=orthogonalEdgeStyle;rounded=0;orthogonalLoop=1;jettySize=auto;html=1;entryX=0.5;entryY=0;entryDx=0;entryDy=0;" edge="1" parent="1" source="VqYttmcOmST4QJVRA_Sv-86" target="VqYttmcOmST4QJVRA_Sv-88">
          <mxGeometry relative="1" as="geometry">
            <Array as="points">
              <mxPoint x="356.25" y="150" />
            </Array>
          </mxGeometry>
        </mxCell>
        <mxCell id="VqYttmcOmST4QJVRA_Sv-95" style="edgeStyle=orthogonalEdgeStyle;rounded=0;orthogonalLoop=1;jettySize=auto;html=1;" edge="1" parent="1" source="VqYttmcOmST4QJVRA_Sv-86">
          <mxGeometry relative="1" as="geometry">
            <mxPoint x="452.25" y="210" as="targetPoint" />
            <Array as="points">
              <mxPoint x="532.25" y="150" />
              <mxPoint x="532.25" y="210" />
              <mxPoint x="492.25" y="210" />
            </Array>
          </mxGeometry>
        </mxCell>
        <mxCell id="VqYttmcOmST4QJVRA_Sv-86" value="if (elem1 &amp;gt; max)" style="rhombus;whiteSpace=wrap;html=1;" vertex="1" parent="1">
          <mxGeometry x="382.25" y="135" width="130" height="30" as="geometry" />
        </mxCell>
        <mxCell id="VqYttmcOmST4QJVRA_Sv-90" style="edgeStyle=orthogonalEdgeStyle;rounded=0;orthogonalLoop=1;jettySize=auto;html=1;entryX=0.5;entryY=0;entryDx=0;entryDy=0;" edge="1" parent="1" source="VqYttmcOmST4QJVRA_Sv-87" target="VqYttmcOmST4QJVRA_Sv-86">
          <mxGeometry relative="1" as="geometry">
            <Array as="points">
              <mxPoint x="447.25" y="100" />
            </Array>
          </mxGeometry>
        </mxCell>
        <mxCell id="VqYttmcOmST4QJVRA_Sv-96" style="edgeStyle=orthogonalEdgeStyle;rounded=0;orthogonalLoop=1;jettySize=auto;html=1;" edge="1" parent="1" source="VqYttmcOmST4QJVRA_Sv-87">
          <mxGeometry relative="1" as="geometry">
            <mxPoint x="562.25" y="220" as="targetPoint" />
            <Array as="points">
              <mxPoint x="647.25" y="100" />
              <mxPoint x="647.25" y="220" />
            </Array>
          </mxGeometry>
        </mxCell>
        <mxCell id="VqYttmcOmST4QJVRA_Sv-87" value="if (elem1 == elem2)" style="rhombus;whiteSpace=wrap;html=1;" vertex="1" parent="1">
          <mxGeometry x="477.25" y="80" width="150" height="40" as="geometry" />
        </mxCell>
        <mxCell id="VqYttmcOmST4QJVRA_Sv-94" style="edgeStyle=orthogonalEdgeStyle;rounded=0;orthogonalLoop=1;jettySize=auto;html=1;" edge="1" parent="1" source="VqYttmcOmST4QJVRA_Sv-88">
          <mxGeometry relative="1" as="geometry">
            <mxPoint x="452.25" y="210" as="targetPoint" />
            <Array as="points">
              <mxPoint x="356.25" y="210" />
            </Array>
          </mxGeometry>
        </mxCell>
        <mxCell id="VqYttmcOmST4QJVRA_Sv-88" value="max = elem1;" style="rounded=0;whiteSpace=wrap;html=1;" vertex="1" parent="1">
          <mxGeometry x="316" y="180" width="80" height="20" as="geometry" />
        </mxCell>
        <mxCell id="VqYttmcOmST4QJVRA_Sv-89" value="return max;" style="rounded=0;whiteSpace=wrap;html=1;" vertex="1" parent="1">
          <mxGeometry x="527.75" y="240" width="70" height="20" as="geometry" />
        </mxCell>
        <mxCell id="VqYttmcOmST4QJVRA_Sv-97" value="" style="endArrow=classic;html=1;rounded=0;" edge="1" parent="1">
          <mxGeometry width="50" height="50" relative="1" as="geometry">
            <mxPoint x="452.25" y="210" as="sourcePoint" />
            <mxPoint x="562.25" y="220" as="targetPoint" />
            <Array as="points">
              <mxPoint x="452.25" y="220" />
            </Array>
          </mxGeometry>
        </mxCell>
        <mxCell id="VqYttmcOmST4QJVRA_Sv-98" value="" style="endArrow=classic;html=1;rounded=0;entryX=0.5;entryY=0;entryDx=0;entryDy=0;" edge="1" parent="1" target="VqYttmcOmST4QJVRA_Sv-89">
          <mxGeometry width="50" height="50" relative="1" as="geometry">
            <mxPoint x="562.25" y="220" as="sourcePoint" />
            <mxPoint x="612.25" y="200" as="targetPoint" />
          </mxGeometry>
        </mxCell>
        <mxCell id="VqYttmcOmST4QJVRA_Sv-102" value="0" style="text;html=1;align=center;verticalAlign=middle;whiteSpace=wrap;rounded=0;" vertex="1" parent="1">
          <mxGeometry x="621" y="80" width="20" height="20" as="geometry" />
        </mxCell>
        <mxCell id="VqYttmcOmST4QJVRA_Sv-103" value="0" style="text;html=1;align=center;verticalAlign=middle;whiteSpace=wrap;rounded=0;" vertex="1" parent="1">
          <mxGeometry x="507.75" y="135" width="20" height="20" as="geometry" />
        </mxCell>
        <mxCell id="VqYttmcOmST4QJVRA_Sv-104" value="1" style="text;html=1;align=center;verticalAlign=middle;whiteSpace=wrap;rounded=0;" vertex="1" parent="1">
          <mxGeometry x="358" y="130" width="25" height="20" as="geometry" />
        </mxCell>
        <mxCell id="VqYttmcOmST4QJVRA_Sv-105" value="1" style="text;html=1;align=center;verticalAlign=middle;whiteSpace=wrap;rounded=0;" vertex="1" parent="1">
          <mxGeometry x="453.5" y="80" width="25" height="20" as="geometry" />
        </mxCell>
        <mxCell id="VqYttmcOmST4QJVRA_Sv-106" value="{" style="text;html=1;align=center;verticalAlign=middle;whiteSpace=wrap;rounded=0;" vertex="1" parent="1">
          <mxGeometry x="526.5" y="55" width="25" height="20" as="geometry" />
        </mxCell>
        <mxCell id="VqYttmcOmST4QJVRA_Sv-107" value="}" style="text;html=1;align=center;verticalAlign=middle;whiteSpace=wrap;rounded=0;" vertex="1" parent="1">
          <mxGeometry x="597.75" y="240" width="12.5" height="20" as="geometry" />
        </mxCell>
      </root>
    </mxGraphModel>
  </diagram>
</mxfile>
